<svg id="Layer_1" data-name="Layer 1" xmlns="http://www.w3.org/2000/svg" viewBox="0 0 1134.52 274.7"><defs><style>.cls-1{fill:#fae600;}.cls-2{fill:#fff;}</style></defs><title>logo</title><path class="cls-1" d="M22.79,0H654.88a12,12,0,0,1,12,12V262.69a12,12,0,0,1-12,12H22.71A22.72,22.72,0,0,1,0,252V22.79A22.79,22.79,0,0,1,22.79,0Z"/><path d="M1050.48,274.69H500.15V0h622.26c14.59,0,12.61,8.76,11,16.53,0,0-41.38,188.47-51.45,235.05C1079,268,1076,275,1050.48,274.69Z"/><path d="M134,145q6.66,7.89,6.66,20,0,47.55-56.37,47.55-23.58,0-39-6.55-3.69-1.44-3.69-4.31,0-2.67,2.66-9.22c1.1-2.46,2.8-3.69,5.13-3.69a27.34,27.34,0,0,1,6.35,1.64,84.47,84.47,0,0,0,30.75,5.33q16.2,0,24.91-5.54t8.71-19.88a18.91,18.91,0,0,0-3.79-11.89q-3.79-4.92-16.09-10.05L84,141.83q-24.18-9.63-24.19-33.41,0-45.91,55.14-45.92,18.87,0,32,4.31c2.33.82,3.5,2.32,3.49,4.51,0,1.64-.69,4.65-2.05,9a4.18,4.18,0,0,1-4.31,3.28,25,25,0,0,1-6.76-1,105.27,105.27,0,0,0-27.06-3.69q-30.14,0-30.13,25.22a21.21,21.21,0,0,0,3.69,12.71q3.69,5.11,14.34,9.43l14.81,6Q127.35,137.15,134,145Z"/><path d="M190.07,212.58q-27.87,0-27.88-19.26a89.28,89.28,0,0,1,2.05-16.61L178,112.76c.67-3,2.37-4.51,5.12-4.51H193c2.33,0,3.49,1,3.49,2.87A19.57,19.57,0,0,1,196,115l-13.1,60.48A56.57,56.57,0,0,0,181.46,187q0,9.84,16.4,9.84,14.14,0,23-3.69a15.58,15.58,0,0,0,4.72-3.28,18.44,18.44,0,0,0,2.46-6.56L243,113c.67-3.14,2.44-4.71,5.33-4.71h9.43q3.69,0,3.69,3.07a12.12,12.12,0,0,1-.41,2.87l-19.27,91.22q-3.48,16.61-8,25.42-7.58,14.55-24.18,20.8t-45.31,6.26c-3.55,0-5.32-1.51-5.32-4.51q0-2.88.2-5.74.41-6,4.92-6,24.39,0,35.67-3.89t16.19-11.48a48.4,48.4,0,0,0,6-15.78l1-4.72Q209.34,212.59,190.07,212.58Z"/><path d="M288.06,210.33h-9.84q-3.69,0-3.69-3.08a17.06,17.06,0,0,1,.62-3.89l16.19-76.66q2.06-9,9.43-12.3,18.64-8.61,45.71-8.61,11.47,0,19.37,4.2t7.89,13.84a78.54,78.54,0,0,1-2.05,17.42L358,205.62q-1,4.71-4.92,4.71H343.2q-3.69,0-3.69-3.08a26.93,26.93,0,0,1,.62-4.09L353,143.09a70.23,70.23,0,0,0,1.64-11.27q0-10-16-10a61.8,61.8,0,0,0-23.57,4.51,25.56,25.56,0,0,0-4.51,2.66q-1.44,1.44-2.46,5.95L293,205.62C292.33,208.76,290.69,210.33,288.06,210.33Z"/><path d="M411.05,175.89q0,11.48,6.26,16.3T436.06,197a90.2,90.2,0,0,0,23-3.08q5.54-1.23,6-1.23a2.8,2.8,0,0,1,2.87,2.46c1.23,3.69,1.85,6.22,1.84,7.59,0,2-1.43,3.62-4.3,4.71q-13.12,5.13-34,5.12-19.47,0-29.21-9.12t-9.74-25.93a103.21,103.21,0,0,1,5.12-32,63.46,63.46,0,0,1,15.79-26.23Q426.84,106,451,106q17.42,0,24.8,7.07t7.38,20a99.77,99.77,0,0,1-2.87,23.78q-1.23,4.71-3.08,6.15-1.43,1.23-4.91,1.23H412.08A79.93,79.93,0,0,0,411.05,175.89Zm53.1-26.24A50.76,50.76,0,0,0,466,135.1q0-7.17-4-10.66T448,121q-14.34,0-22.75,8.4-6.15,6.36-10.05,20.29Z"/><path class="cls-2" d="M558.32,211H544.18c-2.73,0-4.09-1.3-4.1-3.9a25.41,25.41,0,0,1,.41-3.48l25.42-117H529.42q-4.3,0-4.3-3.07,0-2.05,2.25-12.92c.68-3.14,2.6-4.71,5.74-4.71h96.14Q634,65.92,634,69q0,3.49-2.46,13.94c-.54,2.46-2.46,3.69-5.74,3.69H589.48L563.86,205.47C563.31,209.16,561.47,211,558.32,211Z"/><path class="cls-2" d="M689.11,203q-2.26,2.88-7.79,4.92-14.76,5.34-37.31,5.33-33,0-33-25.62,0-23.77,17-33,10.25-5.74,32.8-5.74,7.38,0,19.06,1l1-4.92a47.38,47.38,0,0,0,1.23-9.63q0-9.23-16.4-9.23A101.51,101.51,0,0,0,644.83,128a46.27,46.27,0,0,1-8,1.43q-2.66,0-3.48-3.48a39.65,39.65,0,0,1-1.64-9.23q0-3.89,5.33-5.73,14.36-4.51,33.41-4.51c4.1,0,7.66.1,10.66.3a50.54,50.54,0,0,1,9.53,1.64,25.35,25.35,0,0,1,8.1,3.49,16.79,16.79,0,0,1,5.13,6,20.08,20.08,0,0,1,2,9.43,89.48,89.48,0,0,1-2.26,18l-10,46.94Q692,199.54,689.11,203Zm-28.5-37.71q-14.15,0-20.29,3.48-7.38,4.3-7.38,14.35,0,12.7,16,12.71,10.86,0,17.63-2.87a8.7,8.7,0,0,0,4.1-3.69,33.1,33.1,0,0,0,2.46-7.58l3.69-15.58a121.9,121.9,0,0,0-16.21-.81Z"/><path class="cls-2" d="M749.78,175.34a51.34,51.34,0,0,0-1.43,10.25q0,4.09,2.46,5.84t8,2.57c2.46.4,3.69,1.91,3.69,4.5a28.46,28.46,0,0,1-1.64,9c-1,2.74-3.21,4.1-6.76,4.1Q725,211.6,725,191.1a67.44,67.44,0,0,1,1.85-13.93L751,63.42q1.44-6.15,6-6.15h12.5q4.51,0,4.51,3.89a4.9,4.9,0,0,1-.1.93c-.07.34-.17.78-.31,1.33a5.64,5.64,0,0,0-.2,1.23Z"/><path class="cls-2" d="M804.93,176q0,10.25,5.63,14.34t17.32,4.1a94.24,94.24,0,0,0,22.12-2.7,57.55,57.55,0,0,1,6.36-1.23q2.25,0,3.28,2.87c1.36,4.37,2.05,7.58,2.05,9.63s-1.51,3.9-4.51,5.13q-13.12,5.13-35.47,5.12Q782,213.26,782,177.8a101,101,0,0,1,5.33-32.18q5.32-16,16.19-26.24,13.53-12.91,38.13-12.91,18.24,0,25.83,7.07t7.58,20.39a94.52,94.52,0,0,1-3.07,24.6c-.82,3.28-1.92,5.47-3.28,6.56a9.21,9.21,0,0,1-5.13,1.23h-57.8A51.47,51.47,0,0,0,804.93,176Zm47.35-26.65a44.41,44.41,0,0,0,1.64-12.92q0-6.35-3.49-9.43t-12.3-3.07q-12.3,0-19.68,7-5.54,5.53-9.22,18.45Z"/><path class="cls-2" d="M902.5,211H889.18c-2.74,0-4.1-1.16-4.1-3.49a17.22,17.22,0,0,1,.61-4.1l16.2-76q2-9.23,9.84-12.5,19.66-8.61,47.55-8.61,12.11,0,20.19,4.2t8.1,14.25a79.24,79.24,0,0,1-2,17.63L972,205.68c-.68,3.55-2.53,5.33-5.53,5.33H953.14q-4.1,0-4.1-3.49a25.91,25.91,0,0,1,.62-4.3l12.71-58.63a53.57,53.57,0,0,0,1.43-10q0-9-14.14-9a53.52,53.52,0,0,0-20.09,3.69c-2.32,1.23-3.83,2-4.51,2.46q-1.44,1.44-2.46,5.74L908,205.68C907.21,209.23,905.37,211,902.5,211Z"/><path class="cls-2" d="M1037.18,170.22a47.25,47.25,0,0,0-1.23,10.66q0,6.13,4.1,9.22,3.08,2.25,13.94,3.28c2.87.41,4.3,2,4.31,4.71a44.4,44.4,0,0,1-1.64,9.64q-1.44,4.52-6.36,4.51-17.83-.21-28-5.13t-10.15-18.44q0-7.38,2.87-21.32l8.61-39.16H1013.2q-3.9,0-3.9-3.28,0-3.07,1.85-11.07,1.44-4.71,6.15-4.71H1028l5.53-22.75c1-3.69,3-5.53,6-5.54h11.68q3.9,0,3.9,3.49a25.51,25.51,0,0,1-.82,6.15l-4.1,18.65h17.22q5.11,0,5.12,3.89a39.44,39.44,0,0,1-2,10.87c-.67,2.87-2.72,4.31-6.15,4.3h-17.83Z"/></svg>